<svg xmlns="http://www.w3.org/2000/svg" xmlns:xlink="http://www.w3.org/1999/xlink" width="100" height="53.25" viewBox="0 0 100 53.25">
  <defs>
    <clipPath id="clip-SPRK_default_preset_name_custom_1">
      <rect width="100" height="53.25"/>
    </clipPath>
  </defs>
  <g id="SPRK_default_preset_name_custom_1" data-name="SPRK_default_preset_name_custom – 1" clip-path="url(#clip-SPRK_default_preset_name_custom_1)">
    <g id="_ffffffff" data-name="#ffffffff" transform="translate(0 -9.988)">
      <path id="路径_1" data-name="路径 1" d="M13.274,13.578c7.113-4.266,16.048-4.331,23.806-1.935C45.194,14.57,52.161,20,58.323,25.909c-2.468,1.871-4.984,3.669-7.516,5.444-4.548-3.774-9.081-7.782-14.621-10.04A22.817,22.817,0,0,0,20.9,20.5a16.955,16.955,0,0,0-8.113,26.556c4.613,5.992,13.129,8.185,20.242,5.992,6.548-1.9,11.75-6.75,15.944-11.944C55.694,32.53,60.79,22.861,66.46,13.586c.927-1.347,1.831-3.065,3.589-3.419a4.174,4.174,0,0,1,4.944,2.258Q85.02,30.159,94.839,48.014A112.974,112.974,0,0,1,100,58.095v1.444a4.65,4.65,0,0,1-3.323,3.54c-2.161.6-3.911-1.113-5.565-2.21-9.4-6.976-18.855-13.879-28.153-21q3.69-2.673,7.387-5.339c3.694,2.129,6.944,4.911,10.508,7.242-3.21-6.113-6.581-12.145-9.911-18.194-7.71,11.839-14.016,25.306-25.871,33.685C35.1,64.909,19.8,65.5,9.927,57.377A26.655,26.655,0,0,1,0,37.24V35.974A26.651,26.651,0,0,1,13.274,13.578Z" fill="#109d58"/>
    </g>
  </g>
</svg>
