<?xml version="1.0" encoding="UTF-8" ?>
<!DOCTYPE svg PUBLIC "-//W3C//DTD SVG 1.1//EN" "http://www.w3.org/Graphics/SVG/1.1/DTD/svg11.dtd">
<svg width="124pt" height="86pt" viewBox="0 0 124 86" version="1.1" xmlns="http://www.w3.org/2000/svg">
<g id="#ffffffff">
<path fill="#ffffff" opacity="1.00" d=" M 16.46 14.44 C 25.28 9.15 36.36 9.07 45.98 12.04 C 56.04 15.67 64.68 22.40 72.32 29.73 C 69.26 32.05 66.14 34.28 63.00 36.48 C 57.36 31.80 51.74 26.83 44.87 24.03 C 38.88 21.70 32.09 20.98 25.91 23.02 C 20.10 24.84 15.23 29.39 12.97 35.03 C 10.15 41.83 11.08 50.24 15.85 55.95 C 21.57 63.38 32.13 66.10 40.95 63.38 C 49.07 61.03 55.52 55.01 60.72 48.57 C 69.06 37.94 75.38 25.95 82.41 14.45 C 83.56 12.78 84.68 10.65 86.86 10.21 C 89.29 9.44 91.93 10.75 92.99 13.01 C 101.28 27.67 109.47 42.39 117.60 57.14 C 119.81 61.27 122.21 65.30 124.00 69.64 L 124.00 71.43 C 123.41 73.44 122.07 75.41 119.88 75.82 C 117.20 76.57 115.03 74.44 112.98 73.08 C 101.33 64.43 89.60 55.87 78.07 47.04 C 81.12 44.83 84.17 42.62 87.23 40.42 C 91.81 43.06 95.84 46.51 100.26 49.40 C 96.28 41.82 92.10 34.34 87.97 26.84 C 78.41 41.52 70.59 58.22 55.89 68.61 C 43.52 78.09 24.55 78.82 12.31 68.75 C 4.78 62.78 0.18 53.38 0.00 43.78 L 0.00 42.21 C 0.16 30.91 6.64 20.02 16.46 14.44 Z" />
</g>
</svg>
